<svg height="511pt" viewBox="-33 0 511 511.99994" width="511pt" xmlns="http://www.w3.org/2000/svg"><path d="m444.820312 234.777344c7.117188 66.90625-16.847656 132.617187-64.375 180.148437-87.148437 87.144531-228.945312 87.144531-316.09375 0-8.640624-8.644531-8.640624-22.65625 0-31.296875 8.644532-8.640625 22.652344-8.640625 31.296876 0 69.890624 69.890625 183.609374 69.890625 253.5 0 38.117187-38.117187 56.933593-90.785156 51.625-144.496094-1.203126-12.164062 7.683593-22.996093 19.84375-24.199218 6.867187-.679688 22.335937 2.3125 24.203124 19.84375zm0 0" fill="#abebf4"/><path d="m1.734375 277.21875c-7.121094-66.902344 16.847656-132.613281 64.375-180.144531 87.144531-87.144531 228.945313-87.144531 316.089844 0 8.644531 8.644531 8.644531 22.65625 0 31.296875-8.640625 8.640625-22.652344 8.640625-31.292969 0-69.890625-69.890625-183.609375-69.890625-253.5 0-38.117188 38.117187-56.9375 90.785156-51.625 144.496094 1.199219 12.164062-7.683594 22.996093-19.847656 24.199218-6.867188.679688-22.332032-2.3125-24.199219-19.847656zm0 0" fill="#b2e59c"/><path d="m382.199219 128.371094c8.644531-8.640625 8.644531-22.652344 0-31.296875-37.582031-37.582031-85.34375-58.957031-134.492188-64.125 6.453125 7.902343 11.136719 16.820312 9.09375 24.765625-1.664062 6.464844-6.847656 13.15625-13.160156 19.292968 39.210937 4.246094 77.269531 21.367188 107.265625 51.363282 8.640625 8.644531 22.652344 8.644531 31.292969 0zm0 0" fill="#9ad880"/><path d="m64.351562 383.628906c-8.640624 8.640625-8.640624 22.652344 0 31.296875 37.585938 37.582031 85.347657 58.957031 134.496094 64.125-6.453125-7.902343-11.140625-16.820312-9.09375-24.765625 1.664063-6.464844 6.847656-13.15625 13.160156-19.292968-39.214843-4.246094-77.269531-21.367188-107.265624-51.363282-8.640626-8.644531-22.652344-8.644531-31.296876 0zm0 0" fill="#8ed7e8"/><path d="m249.195312 119.054688c-.246093-12.21875 9.460938-22.324219 21.679688-22.570313l69.492188-1.402344-21.070313-66.238281c-3.707031-11.648438 2.730469-24.089844 14.378906-27.796875 11.644531-3.703125 24.089844 2.730469 27.792969 14.378906l30.058594 94.476563c2.117187 6.648437.96875 13.914062-3.097656 19.589844-4.0625 5.675781-10.566407 9.101562-17.546876 9.242187l-99.117187 2c-17.035156-.339844-22.449219-15.730469-22.570313-21.679687zm0 0" fill="#c8efb9"/><path d="m197.359375 392.945312c.246094 12.21875-9.460937 22.324219-21.679687 22.570313l-69.492188 1.402344 21.070312 66.238281c3.707032 11.644531-2.730468 24.089844-14.378906 27.796875-11.644531 3.703125-24.09375-2.730469-27.796875-14.378906l-30.054687-94.476563c-2.117188-6.648437-.96875-13.914062 3.09375-19.589844 4.066406-5.675781 10.570312-9.101562 17.550781-9.242187l99.117187-2c17.035157.339844 22.449219 15.730469 22.570313 21.679687zm0 0" fill="#ccf8ff"/></svg>